# xmcd
#
# Track frame offsets:
#	150
#	13382
#	26277
#	39322
#	51545
#	64520
#	78597
#	92847
#	106329
#	119285
#	131102
#	145935
#	158747
#	170327
#	181782
#	194482
#	206870
#	220812
#	233692
#	246912
#	260540
#	272837
#
# Disc length: 3829 seconds
#
# Revision: 0
# Processed by: cddbd v1.5.1PL0 Copyright (c) Steve Scherf et al.
# Submitted via: audiograbber 1.83.01
#
DISCID=400ef316
DTITLE=Tampa Red and Big Maceo - The great piano - guitar duo 1941-1946
DYEAR=1900
DGENRE=Blues
TTITLE0=It's a low down shame
TTITLE1=Georgia Georgia blues
TTITLE2=Don't deal with the devil
TTITLE3=So far, so good
TTITLE4=Worried life blues
TTITLE5=Can't you read
TTITLE6=Ramblin' mind blues
TTITLE7=My first love blues
TTITLE8=Mean and evil woman
TTITLE9=Let me play your poodle
TTITLE10=She want to sell my monkey
TTITLE11=You gonna miss me when i'm gone
TTITLE12=Kid man blues
TTITLE13=I'm so worried
TTITLE14=Mercy mama blues
TTITLE15=Better leave my gal alone
TTITLE16=Come on home
TTITLE17=Texas stomp
TTITLE18=Big road blues
TTITLE19=I'll be up again some day
TTITLE20=Maybe, someday
TTITLE21=Crying won't help you
EXTD=
EXTT0=
EXTT1=
EXTT2=
EXTT3=
EXTT4=
EXTT5=
EXTT6=
EXTT7=
EXTT8=
EXTT9=
EXTT10=
EXTT11=
EXTT12=
EXTT13=
EXTT14=
EXTT15=
EXTT16=
EXTT17=
EXTT18=
EXTT19=
EXTT20=
EXTT21=
PLAYORDER=
